<?xml version="1.0" encoding="UTF-8"?>
<!DOCTYPE svg PUBLIC "-//W3C//DTD SVG 1.1//EN" "http://www.w3.org/Graphics/SVG/1.1/DTD/svg11.dtd">
<svg xmlns="http://www.w3.org/2000/svg" version="1.1" width="800px" height="800px" style="shape-rendering:geometricPrecision; text-rendering:geometricPrecision; image-rendering:optimizeQuality; fill-rule:evenodd; clip-rule:evenodd" xmlns:xlink="http://www.w3.org/1999/xlink">
<g><path style="opacity:1" fill="#0a2c4f" d="M 608.5,177.5 C 607.402,178.601 607.235,179.934 608,181.5C 610.063,184.054 611.897,186.72 613.5,189.5C 612.349,191.325 611.682,193.325 611.5,195.5C 613.936,195.317 616.103,195.984 618,197.5C 619.757,202.402 621.591,206.902 623.5,211C 623.095,211.945 622.428,212.612 621.5,213C 629.31,224.331 632.977,236.998 632.5,251C 632.598,257.585 631.931,264.085 630.5,270.5C 631.139,273.475 631.639,276.475 632,279.5C 632.608,281.066 633.442,282.4 634.5,283.5C 636.636,285.812 638.636,288.312 640.5,291C 642.167,292 643.833,293 645.5,294C 655.031,296.311 664.697,297.644 674.5,298C 688.654,301.048 698.987,308.882 705.5,321.5C 710.185,345.857 709.018,369.857 702,393.5C 701.107,392.289 700.274,392.289 699.5,393.5C 698.167,394.833 698.167,396.167 699.5,397.5C 697.249,399.931 697.082,402.598 699,405.5C 701.908,407.881 703.908,410.881 705,414.5C 705.792,420.041 707.292,425.374 709.5,430.5C 708.572,432.773 708.572,435.106 709.5,437.5C 708.948,440.047 707.614,442.047 705.5,443.5C 704.667,446.5 703.833,449.5 703,452.5C 699.082,455.422 694.749,457.422 690,458.5C 681.691,456.884 673.358,455.551 665,454.5C 662.443,454.555 659.943,454.888 657.5,455.5C 656.169,494.665 656.169,533.665 657.5,572.5C 655.89,586.769 648.223,595.769 634.5,599.5C 633.833,599.5 633.167,599.5 632.5,599.5C 630.167,599.5 627.833,599.5 625.5,599.5C 625.354,603.387 624.687,607.054 623.5,610.5C 623.44,609.957 623.107,609.624 622.5,609.5C 619.648,613.725 618.648,618.225 619.5,623C 616.634,627.842 614.801,633.009 614,638.5C 611.128,641.573 609.462,644.906 609,648.5C 607.978,647.646 607.145,646.646 606.5,645.5C 608.318,644.176 609.318,642.343 609.5,640C 608.041,634.599 607.208,629.099 607,623.5C 605.989,622.663 604.822,622.33 603.5,622.5C 603.666,617.489 603.499,612.489 603,607.5C 602.689,614.314 602.522,620.981 602.5,627.5C 604.097,631.358 605.097,635.358 605.5,639.5C 603.801,639.62 602.135,639.954 600.5,640.5C 598.67,640.42 597.337,639.587 596.5,638C 597.844,633.474 598.344,628.974 598,624.5C 599.011,623.663 600.178,623.33 601.5,623.5C 601.209,618.175 600.209,613.009 598.5,608C 598.658,606.023 598.825,603.857 599,601.5C 598.667,602.167 598.333,602.833 598,603.5C 596.29,600.104 593.457,598.604 589.5,599C 589.337,596.811 588.337,594.645 586.5,592.5C 581.788,593.926 576.955,594.592 572,594.5C 558.32,593.472 544.82,593.472 531.5,594.5C 529.68,594.351 528.18,593.684 527,592.5C 524.874,592.791 522.54,593.457 520,594.5C 502.604,595 484.271,594.333 465,592.5C 459.277,593.71 453.444,594.377 447.5,594.5C 441.588,593.705 435.754,593.705 430,594.5C 429,593.833 428,593.167 427,592.5C 425.33,592.344 423.663,593.01 422,594.5C 408.998,594.222 395.998,593.555 383,592.5C 380.333,593.833 377.667,593.833 375,592.5C 372.888,594.922 370.888,594.922 369,592.5C 367.006,593.664 364.839,594.331 362.5,594.5C 350.843,593.305 339.177,593.305 327.5,594.5C 317.924,594.081 308.424,593.414 299,592.5C 288.278,592.611 276.944,592.611 265,592.5C 254.023,593.31 243.189,593.976 232.5,594.5C 229.099,592.676 225.432,591.676 221.5,591.5C 221.522,587.407 222.189,583.407 223.5,579.5C 223.449,577.9 223.116,576.4 222.5,575C 226.395,575 230.395,574.5 234.5,573.5C 240.168,574.397 245.668,575.063 251,575.5C 251.914,573.336 253.081,571.336 254.5,569.5C 255.803,566.355 255.803,563.355 254.5,560.5C 261.617,526.199 268.784,491.865 276,457.5C 276.667,454.5 276.667,451.5 276,448.5C 267.912,447.352 259.746,447.185 251.5,448C 251,448.5 250.5,449 250,449.5C 245.335,474.805 240.669,500.138 236,525.5C 232.057,501.45 227.724,477.45 223,453.5C 222.727,451.671 221.893,450.171 220.5,449C 212.421,448.099 204.421,448.432 196.5,450C 195.874,450.75 195.374,451.584 195,452.5C 190.626,477.974 185.959,503.307 181,528.5C 178.655,510.404 175.822,492.404 172.5,474.5C 173.163,472.527 173.496,470.361 173.5,468C 172.995,462.141 172.329,456.307 171.5,450.5C 168.422,449.798 165.422,448.798 162.5,447.5C 157.888,449.863 153.222,450.029 148.5,448C 150.439,447.092 151.439,445.592 151.5,443.5C 149.856,443.714 148.356,443.38 147,442.5C 146.275,444.158 145.108,444.658 143.5,444C 144.167,443.667 144.833,443.333 145.5,443C 144,441.833 142.5,440.667 141,439.5C 137,439.5 133,439.5 129,439.5C 127.978,440.354 127.145,441.354 126.5,442.5C 118.833,443.833 111.167,443.833 103.5,442.5C 107.089,441.29 110.589,439.957 114,438.5C 114.333,439.167 114.667,439.833 115,440.5C 116.576,441.013 117.909,440.346 119,438.5C 119.945,438.905 120.612,439.572 121,440.5C 121.667,437.833 122.333,437.833 123,440.5C 126.389,437.631 130.389,436.298 135,436.5C 141.164,437.213 147.331,437.379 153.5,437C 152.167,436.667 150.833,436.333 149.5,436C 151.101,435.727 152.601,435.227 154,434.5C 154.604,436.686 155.77,436.852 157.5,435C 155.944,434.28 154.944,433.113 154.5,431.5C 164.857,428.015 172.19,421.348 176.5,411.5C 176.721,414.097 177.221,414.097 178,411.5C 178.914,415.185 179.581,414.852 180,410.5C 181.692,403.24 181.525,396.073 179.5,389C 179.735,388.127 180.069,387.293 180.5,386.5C 179.47,386.446 178.303,386.112 177,385.5C 176.02,382.092 174.853,378.758 173.5,375.5C 172.5,376.833 171.5,376.833 170.5,375.5C 165.994,370.167 167.327,367.167 174.5,366.5C 176.136,359.267 175.802,352.267 173.5,345.5C 173.721,342.721 173.388,340.054 172.5,337.5C 173.267,336.828 173.934,335.995 174.5,335C 172.742,331.627 170.409,328.793 167.5,326.5C 166.9,322.524 164.567,320.357 160.5,320C 143.844,318.221 127.178,318.221 110.5,320C 108.112,320.303 105.945,321.137 104,322.5C 103.085,321.672 102.419,320.672 102,319.5C 101.667,319.833 101.333,320.167 101,320.5C 101.084,359.869 101.251,399.202 101.5,438.5C 99.6778,438.463 97.6778,438.796 95.5,439.5C 95.1253,436.603 95.6253,433.937 97,431.5C 97.1667,421 97.3333,410.5 97.5,400C 95.5187,372.931 94.852,346.098 95.5,319.5C 95.7852,317.712 95.4519,316.045 94.5,314.5C 93.721,317.066 92.221,319.066 90,320.5C 89.5,357.498 89.3333,394.498 89.5,431.5C 89.4615,434.807 90.1282,437.974 91.5,441C 90.0103,444.214 90.3437,447.214 92.5,450C 90.3259,450.181 88.4925,449.348 87,447.5C 86.1481,444.012 84.9815,440.678 83.5,437.5C 82.3334,398.171 82.1667,358.838 83,319.5C 83.2503,316.246 84.2503,313.246 86,310.5C 88.692,309.248 90.5253,307.248 91.5,304.5C 91.5,303.833 91.8333,303.5 92.5,303.5C 97.7161,302.077 103.049,301.244 108.5,301C 119.849,300.587 131.182,299.92 142.5,299C 143.623,297.956 144.956,297.29 146.5,297C 145.552,296.517 144.552,296.351 143.5,296.5C 144.568,295.566 145.901,295.232 147.5,295.5C 151.464,296.128 155.131,294.962 158.5,292C 167.997,283.958 171.497,273.791 169,261.5C 168.333,254.167 168.333,246.833 169,239.5C 169.975,236.24 171.142,233.073 172.5,230C 171.536,228.275 170.869,226.441 170.5,224.5C 171.735,218.558 173.735,212.892 176.5,207.5C 177.496,207.586 178.329,207.252 179,206.5C 183.309,199.074 187.142,191.408 190.5,183.5C 191.262,184.628 191.929,185.795 192.5,187C 194.81,187.497 197.143,187.663 199.5,187.5C 199.5,186.5 199.5,185.5 199.5,184.5C 200.833,184.5 202.167,184.5 203.5,184.5C 203.187,181.753 203.52,179.086 204.5,176.5C 206.895,175.477 207.895,176.477 207.5,179.5C 208.833,179.5 210.167,179.5 211.5,179.5C 211.433,181.401 211.767,183.234 212.5,185C 212.223,186.892 211.223,188.225 209.5,189C 209.833,189.333 210.167,189.667 210.5,190C 208.473,191.879 206.14,193.046 203.5,193.5C 203.083,197.835 202.583,202.168 202,206.5C 200.184,207.329 198.351,208.163 196.5,209C 196.833,209.333 197.167,209.667 197.5,210C 194.665,215.037 193.998,220.203 195.5,225.5C 190.867,239.506 191.7,253.173 198,266.5C 205.998,273.911 215.498,277.577 226.5,277.5C 343.666,278.666 460.999,278.833 578.5,278C 601.803,275.219 611.47,262.386 607.5,239.5C 605.839,229.154 602.505,219.487 597.5,210.5C 581.592,174.416 556.592,146.25 522.5,126C 500.278,112.654 476.612,103.154 451.5,97.5C 452.239,97.631 452.906,97.4643 453.5,97C 448.572,95.6784 443.572,94.6784 438.5,94C 440.25,92.6814 442.25,92.1814 444.5,92.5C 444.67,91.1779 444.337,90.0113 443.5,89C 441.5,88.8333 439.5,88.6667 437.5,88.5C 431.933,90.5041 426.1,91.5041 420,91.5C 408.927,91.0536 397.927,90.387 387,89.5C 384.164,90.265 381.33,89.9317 378.5,88.5C 377.572,90.3348 376.406,90.6682 375,89.5C 370.927,90.2826 367.094,91.7826 363.5,94C 362.167,94.6667 360.833,94.6667 359.5,94C 361.044,93.7104 362.377,93.0437 363.5,92C 361.915,91.9152 360.582,91.7486 359.5,91.5C 360.025,90.8076 360.692,90.3076 361.5,90C 359.781,86.4897 358.948,82.6564 359,78.5C 357.333,79.1667 355.667,79.8333 354,80.5C 353.167,79 352,77.8333 350.5,77C 355.495,75.1153 360.661,73.6153 366,72.5C 367.03,72.1639 367.53,71.4972 367.5,70.5C 427.242,63.3488 483.242,74.8488 535.5,105C 564.999,123.999 589.332,148.165 608.5,177.5 Z"/></g>
<g><path style="opacity:0.149" fill="#e0e5e9" d="M 659.5,459.5 C 660.249,457.754 661.583,456.754 663.5,456.5C 674.774,459.208 686.107,459.708 697.5,458C 709.111,451.528 713.611,441.695 711,428.5C 707.973,418.948 704.806,409.448 701.5,400C 709.44,379.212 712.274,357.712 710,335.5C 709.304,330.45 707.804,325.784 705.5,321.5C 698.987,308.882 688.654,301.048 674.5,298C 664.697,297.644 655.031,296.311 645.5,294C 643.833,293 642.167,292 640.5,291C 638.636,288.312 636.636,285.812 634.5,283.5C 633.437,279.409 632.77,275.242 632.5,271C 634.843,258.858 635.01,246.692 633,234.5C 627.642,214.25 619.476,195.25 608.5,177.5C 589.332,148.165 564.999,123.999 535.5,105C 483.242,74.8488 427.242,63.3488 367.5,70.5C 352.35,71.7294 337.683,74.7294 323.5,79.5C 322.167,79.8333 320.833,80.1667 319.5,80.5C 296.675,87.4134 275.675,97.7467 256.5,111.5C 254.938,111.733 253.605,112.4 252.5,113.5C 218.623,137.918 193.29,169.251 176.5,207.5C 173.735,212.892 171.735,218.558 170.5,224.5C 165.528,238.345 164.195,252.678 166.5,267.5C 167.564,282.081 161.231,291.414 147.5,295.5C 145.901,295.232 144.568,295.566 143.5,296.5C 130.153,297.061 116.819,297.895 103.5,299C 99.3812,299.644 95.7145,301.144 92.5,303.5C 91.8333,303.5 91.5,303.833 91.5,304.5C 85.856,307.412 82.356,312.079 81,318.5C 80.0232,358.88 80.3565,399.213 82,439.5C 87.9888,455.418 99.4888,461.918 116.5,459C 117,459.5 117.5,460 118,460.5C 127.624,499.663 136.624,538.996 145,578.5C 150.061,591.451 159.561,598.117 173.5,598.5C 173.096,603.783 173.762,608.783 175.5,613.5C 179.474,638.613 191.141,659.446 210.5,676C 219.131,682.477 228.131,688.31 237.5,693.5C 258.309,706.445 280.643,716.112 304.5,722.5C 327.747,728.815 351.413,732.815 375.5,734.5C 390.494,735.742 405.494,735.742 420.5,734.5C 453.142,732.905 484.809,726.572 515.5,715.5C 541.423,706.376 565.09,693.376 586.5,676.5C 607.623,659.603 619.956,637.603 623.5,610.5C 624.687,607.054 625.354,603.387 625.5,599.5C 627.833,599.5 630.167,599.5 632.5,599.5C 631.992,601.233 631.159,601.566 630,600.5C 629,601.167 628,601.833 627,602.5C 624.852,630.636 613.685,654.469 593.5,674C 573.539,690.484 551.539,703.651 527.5,713.5C 487.471,729.346 445.804,737.179 402.5,737C 401.584,737.374 400.75,737.874 400,738.5C 380.263,737.214 360.43,735.381 340.5,733C 316.205,728.255 292.538,721.588 269.5,713C 242.211,701.752 217.878,685.919 196.5,665.5C 180.865,646.337 172.198,624.337 170.5,599.5C 156.213,598.381 146.713,591.048 142,577.5C 138.024,559.517 134.191,541.351 130.5,523C 129.514,519.375 128.347,515.875 127,512.5C 123.841,496.865 120.841,481.198 118,465.5C 117.004,463.256 115.504,461.423 113.5,460C 106.421,459.886 99.4211,459.219 92.5,458C 90.9451,455.445 88.7785,453.612 86,452.5C 82.7781,448.723 80.6115,444.39 79.5,439.5C 78.1667,398.167 78.1667,356.833 79.5,315.5C 80.3953,313.754 81.062,311.92 81.5,310C 86.0113,303.549 92.0113,299.216 99.5,297C 112.823,296.056 126.157,295.222 139.5,294.5C 146.16,293.326 152.493,291.326 158.5,288.5C 160.016,285.296 161.349,281.963 162.5,278.5C 163.333,265.513 163.833,252.513 164,239.5C 167.853,222.105 173.853,205.438 182,189.5C 212.12,136.066 256.286,99.2323 314.5,79C 391.447,55.492 464.947,62.992 535,101.5C 577.103,127.936 608.103,163.936 628,209.5C 634.188,226.68 636.855,244.347 636,262.5C 632.266,274.029 635.266,283.362 645,290.5C 647.355,290.959 649.521,291.792 651.5,293C 661.369,294.568 671.369,295.901 681.5,297C 701.263,304.265 711.763,318.431 713,339.5C 713.667,346.833 713.667,354.167 713,361.5C 711.714,366.992 711.047,372.659 711,378.5C 709.38,386.144 707.213,393.644 704.5,401C 709.021,412.307 712.354,423.974 714.5,436C 713.109,452.557 704.109,461.057 687.5,461.5C 679.642,460.598 671.808,459.598 664,458.5C 662.56,459.148 661.06,459.481 659.5,459.5 Z"/></g>
<g><path style="opacity:1" fill="#14273e" d="M 608.5,177.5 C 619.476,195.25 627.642,214.25 633,234.5C 635.01,246.692 634.843,258.858 632.5,271C 632.77,275.242 633.437,279.409 634.5,283.5C 633.442,282.4 632.608,281.066 632,279.5C 631.639,276.475 631.139,273.475 630.5,270.5C 631.931,264.085 632.598,257.585 632.5,251C 632.977,236.998 629.31,224.331 621.5,213C 622.428,212.612 623.095,211.945 623.5,211C 621.591,206.902 619.757,202.402 618,197.5C 616.103,195.984 613.936,195.317 611.5,195.5C 611.682,193.325 612.349,191.325 613.5,189.5C 611.897,186.72 610.063,184.054 608,181.5C 607.235,179.934 607.402,178.601 608.5,177.5 Z"/></g>
<g><path style="opacity:1" fill="#162b45" d="M 170.5,224.5 C 170.869,226.441 171.536,228.275 172.5,230C 171.142,233.073 169.975,236.24 169,239.5C 168.333,246.833 168.333,254.167 169,261.5C 171.497,273.791 167.997,283.958 158.5,292C 155.131,294.962 151.464,296.128 147.5,295.5C 161.231,291.414 167.564,282.081 166.5,267.5C 164.195,252.678 165.528,238.345 170.5,224.5 Z"/></g>
<g><path style="opacity:1" fill="#639eb4" d="M 597.5,210.5 C 602.505,219.487 605.839,229.154 607.5,239.5C 606.539,241.265 606.205,243.265 606.5,245.5C 605.206,241.777 604.039,241.777 603,245.5C 602.667,244.167 602.333,242.833 602,241.5C 601.755,243.663 600.755,245.33 599,246.5C 599.195,244.874 599.195,243.207 599,241.5C 598.667,242.167 598.333,242.833 598,243.5C 597.302,242.309 596.469,241.309 595.5,240.5C 598.654,230.711 599.32,220.711 597.5,210.5 Z"/></g>
<g><path style="opacity:1" fill="#092c50" d="M 252.5,113.5 C 253.605,112.4 254.938,111.733 256.5,111.5C 260.553,109.391 264.72,107.391 269,105.5C 272.494,107.645 276.16,107.978 280,106.5C 284.302,108.657 288.802,110.323 293.5,111.5C 294.386,112.325 294.719,113.325 294.5,114.5C 292.063,114.756 289.729,115.423 287.5,116.5C 285.568,115.48 283.568,115.313 281.5,116C 278.372,119.546 276.039,123.212 274.5,127C 271.433,127.887 268.433,128.554 265.5,129C 266.167,129.667 266.833,130.333 267.5,131C 263.411,133.127 259.577,135.627 256,138.5C 255.439,137.978 254.772,137.645 254,137.5C 252.829,138.34 251.662,139.173 250.5,140C 251.451,140.718 251.617,141.551 251,142.5C 248.29,145.81 245.124,148.644 241.5,151C 237.817,151.974 234.651,153.141 232,154.5C 231.56,152.924 230.727,151.59 229.5,150.5C 231.104,148.821 231.771,146.821 231.5,144.5C 232.833,144.5 234.167,144.5 235.5,144.5C 235.923,141.757 234.756,140.424 232,140.5C 230.373,140.625 228.873,141.125 227.5,142C 227.833,142.333 228.167,142.667 228.5,143C 225.074,144.238 223.408,143.071 223.5,139.5C 225.5,139.167 227.5,138.833 229.5,138.5C 229.662,135.331 231.328,133.331 234.5,132.5C 235.429,131.311 235.762,129.978 235.5,128.5C 238.167,127.5 240.833,126.5 243.5,125.5C 243.351,124.448 243.517,123.448 244,122.5C 244.333,122.833 244.667,123.167 245,123.5C 246,121.833 247,120.167 248,118.5C 248.333,118.833 248.667,119.167 249,119.5C 250.074,118.382 251.24,117.382 252.5,116.5C 253.791,115.473 253.791,114.473 252.5,113.5 Z"/></g>
<g><path style="opacity:1" fill="#a7d1df" d="M 451.5,97.5 C 476.612,103.154 500.278,112.654 522.5,126C 556.592,146.25 581.592,174.416 597.5,210.5C 599.32,220.711 598.654,230.711 595.5,240.5C 589.492,251.004 580.825,258.504 569.5,263C 548.687,269.605 527.353,273.771 505.5,275.5C 502.059,275.301 498.726,275.801 495.5,277C 405.834,277.5 316.167,277.667 226.5,277.5C 215.498,277.577 205.998,273.911 198,266.5C 191.7,253.173 190.867,239.506 195.5,225.5C 213.516,178.978 244.516,143.811 288.5,120C 340.189,93.6875 394.522,86.1875 451.5,97.5 Z"/></g>
<g><path style="opacity:1" fill="#0a2c4e" d="M 501.5,175.5 C 509.81,175.906 516.31,179.573 521,186.5C 523.147,190.98 522.98,195.313 520.5,199.5C 513.952,200.871 508.452,198.871 504,193.5C 501.233,190.08 499.4,186.247 498.5,182C 498.391,179.288 499.391,177.122 501.5,175.5 Z"/></g>
<g><path style="opacity:1" fill="#0a2c4c" d="M 433.5,170.5 C 444.337,172.077 451.337,178.077 454.5,188.5C 454.594,190.912 453.594,192.745 451.5,194C 439.353,194.59 432.019,188.924 429.5,177C 429.434,173.913 430.768,171.746 433.5,170.5 Z"/></g>
<g><path style="opacity:1" fill="#0b2c4c" d="M 375.5,169.5 C 381.992,167.723 385.659,170.056 386.5,176.5C 385.768,184.127 382.768,190.627 377.5,196C 371.005,197.674 367.338,195.174 366.5,188.5C 367.107,180.956 370.107,174.623 375.5,169.5 Z"/></g>
<g><path style="opacity:1" fill="#0a2c4e" d="M 296.5,158.5 C 303.38,157.876 306.214,160.876 305,167.5C 300.961,177.897 293.461,183.064 282.5,183C 279.864,178.513 280.031,174.013 283,169.5C 286.819,164.833 291.319,161.166 296.5,158.5 Z"/></g>
<g><path style="opacity:1" fill="#0b2b4d" d="M 459.5,133.5 C 469.388,132.693 476.555,136.693 481,145.5C 483.039,151.782 480.872,155.115 474.5,155.5C 465.183,153.516 459.516,147.85 457.5,138.5C 457.437,136.486 458.103,134.819 459.5,133.5 Z"/></g>
<g><path style="opacity:1" fill="#0b2b4d" d="M 349.5,128.5 C 357.322,128.166 360.156,131.833 358,139.5C 353.552,148.473 346.385,152.307 336.5,151C 333.136,147.974 332.636,144.474 335,140.5C 338.811,135.189 343.644,131.189 349.5,128.5 Z"/></g>
<g><path style="opacity:1" fill="#0a2b4d" d="M 399.5,121.5 C 408.736,121.207 416.236,124.54 422,131.5C 424.167,140.667 420.667,144.167 411.5,142C 405.201,140.037 400.368,136.203 397,130.5C 395.927,126.9 396.76,123.9 399.5,121.5 Z"/></g>
<g><path style="opacity:1" fill="#0c2b4b" d="M 367.5,70.5 C 367.53,71.4972 367.03,72.1639 366,72.5C 360.661,73.6153 355.495,75.1153 350.5,77C 352,77.8333 353.167,79 354,80.5C 355.667,79.8333 357.333,79.1667 359,78.5C 358.948,82.6564 359.781,86.4897 361.5,90C 360.692,90.3076 360.025,90.8076 359.5,91.5C 360.582,91.7486 361.915,91.9152 363.5,92C 362.377,93.0437 361.044,93.7104 359.5,94C 360.833,94.6667 362.167,94.6667 363.5,94C 367.094,91.7826 370.927,90.2826 375,89.5C 376.406,90.6682 377.572,90.3348 378.5,88.5C 381.33,89.9317 384.164,90.265 387,89.5C 397.927,90.387 408.927,91.0536 420,91.5C 426.1,91.5041 431.933,90.5041 437.5,88.5C 439.5,88.6667 441.5,88.8333 443.5,89C 444.337,90.0113 444.67,91.1779 444.5,92.5C 442.25,92.1814 440.25,92.6814 438.5,94C 443.572,94.6784 448.572,95.6784 453.5,97C 452.906,97.4643 452.239,97.631 451.5,97.5C 394.522,86.1875 340.189,93.6875 288.5,120C 244.516,143.811 213.516,178.978 195.5,225.5C 193.998,220.203 194.665,215.037 197.5,210C 197.167,209.667 196.833,209.333 196.5,209C 198.351,208.163 200.184,207.329 202,206.5C 202.583,202.168 203.083,197.835 203.5,193.5C 206.14,193.046 208.473,191.879 210.5,190C 210.167,189.667 209.833,189.333 209.5,189C 211.223,188.225 212.223,186.892 212.5,185C 211.767,183.234 211.433,181.401 211.5,179.5C 210.167,179.5 208.833,179.5 207.5,179.5C 207.895,176.477 206.895,175.477 204.5,176.5C 203.52,179.086 203.187,181.753 203.5,184.5C 202.167,184.5 200.833,184.5 199.5,184.5C 199.5,185.5 199.5,186.5 199.5,187.5C 197.143,187.663 194.81,187.497 192.5,187C 191.929,185.795 191.262,184.628 190.5,183.5C 187.142,191.408 183.309,199.074 179,206.5C 178.329,207.252 177.496,207.586 176.5,207.5C 193.29,169.251 218.623,137.918 252.5,113.5C 253.791,114.473 253.791,115.473 252.5,116.5C 251.24,117.382 250.074,118.382 249,119.5C 248.667,119.167 248.333,118.833 248,118.5C 247,120.167 246,121.833 245,123.5C 244.667,123.167 244.333,122.833 244,122.5C 243.517,123.448 243.351,124.448 243.5,125.5C 240.833,126.5 238.167,127.5 235.5,128.5C 235.762,129.978 235.429,131.311 234.5,132.5C 231.328,133.331 229.662,135.331 229.5,138.5C 227.5,138.833 225.5,139.167 223.5,139.5C 223.408,143.071 225.074,144.238 228.5,143C 228.167,142.667 227.833,142.333 227.5,142C 228.873,141.125 230.373,140.625 232,140.5C 234.756,140.424 235.923,141.757 235.5,144.5C 234.167,144.5 232.833,144.5 231.5,144.5C 231.771,146.821 231.104,148.821 229.5,150.5C 230.727,151.59 231.56,152.924 232,154.5C 234.651,153.141 237.817,151.974 241.5,151C 245.124,148.644 248.29,145.81 251,142.5C 251.617,141.551 251.451,140.718 250.5,140C 251.662,139.173 252.829,138.34 254,137.5C 254.772,137.645 255.439,137.978 256,138.5C 259.577,135.627 263.411,133.127 267.5,131C 266.833,130.333 266.167,129.667 265.5,129C 268.433,128.554 271.433,127.887 274.5,127C 276.039,123.212 278.372,119.546 281.5,116C 283.568,115.313 285.568,115.48 287.5,116.5C 289.729,115.423 292.063,114.756 294.5,114.5C 294.719,113.325 294.386,112.325 293.5,111.5C 288.802,110.323 284.302,108.657 280,106.5C 276.16,107.978 272.494,107.645 269,105.5C 264.72,107.391 260.553,109.391 256.5,111.5C 275.675,97.7467 296.675,87.4134 319.5,80.5C 319.5,81.5 319.5,82.5 319.5,83.5C 312.415,86.1356 305.082,88.3022 297.5,90C 294.497,91.1662 291.83,92.8328 289.5,95C 293.733,97.0495 297.9,96.8828 302,94.5C 303.667,95.1667 305.333,95.8333 307,96.5C 308.44,95.8524 309.94,95.5191 311.5,95.5C 310.406,89.0951 313.073,86.7618 319.5,88.5C 319.5,90.1667 319.5,91.8333 319.5,93.5C 317.143,93.3367 314.81,93.5034 312.5,94C 317.304,96.3999 322.304,96.8999 327.5,95.5C 327.5,92.8333 327.5,90.1667 327.5,87.5C 328.5,87.5 329.5,87.5 330.5,87.5C 330.343,86.1266 330.51,84.7932 331,83.5C 331.5,84.6667 332.333,85.5 333.5,86C 332.833,86.3333 332.167,86.6667 331.5,87C 332.793,87.49 334.127,87.6567 335.5,87.5C 337.847,92.31 336.514,95.4767 331.5,97C 338.716,99.1786 345.716,98.512 352.5,95C 353.676,93.3257 355.01,91.8257 356.5,90.5C 354.741,89.246 353.241,89.5794 352,91.5C 351.517,90.552 351.351,89.552 351.5,88.5C 356.833,88.1667 356.833,87.8333 351.5,87.5C 351.813,84.7531 351.48,82.0865 350.5,79.5C 349.914,79.7093 349.414,80.0426 349,80.5C 346.482,78.6924 343.649,77.6924 340.5,77.5C 336.032,77.8773 331.699,78.8773 327.5,80.5C 326.151,80.1543 324.817,79.821 323.5,79.5C 337.683,74.7294 352.35,71.7294 367.5,70.5 Z"/></g>
<g><path style="opacity:1" fill="#092c51" d="M 319.5,80.5 C 320.833,80.1667 322.167,79.8333 323.5,79.5C 324.817,79.821 326.151,80.1543 327.5,80.5C 331.699,78.8773 336.032,77.8773 340.5,77.5C 343.649,77.6924 346.482,78.6924 349,80.5C 349.414,80.0426 349.914,79.7093 350.5,79.5C 351.48,82.0865 351.813,84.7531 351.5,87.5C 356.833,87.8333 356.833,88.1667 351.5,88.5C 351.351,89.552 351.517,90.552 352,91.5C 353.241,89.5794 354.741,89.246 356.5,90.5C 355.01,91.8257 353.676,93.3257 352.5,95C 345.716,98.512 338.716,99.1786 331.5,97C 336.514,95.4767 337.847,92.31 335.5,87.5C 334.127,87.6567 332.793,87.49 331.5,87C 332.167,86.6667 332.833,86.3333 333.5,86C 332.333,85.5 331.5,84.6667 331,83.5C 330.51,84.7932 330.343,86.1266 330.5,87.5C 329.5,87.5 328.5,87.5 327.5,87.5C 327.5,90.1667 327.5,92.8333 327.5,95.5C 322.304,96.8999 317.304,96.3999 312.5,94C 314.81,93.5034 317.143,93.3367 319.5,93.5C 319.5,91.8333 319.5,90.1667 319.5,88.5C 313.073,86.7618 310.406,89.0951 311.5,95.5C 309.94,95.5191 308.44,95.8524 307,96.5C 305.333,95.8333 303.667,95.1667 302,94.5C 297.9,96.8828 293.733,97.0495 289.5,95C 291.83,92.8328 294.497,91.1662 297.5,90C 305.082,88.3022 312.415,86.1356 319.5,83.5C 319.5,82.5 319.5,81.5 319.5,80.5 Z"/></g>
<g><path style="opacity:1" fill="#7bb3c7" d="M 595.5,240.5 C 596.469,241.309 597.302,242.309 598,243.5C 598.333,242.833 598.667,242.167 599,241.5C 599.195,243.207 599.195,244.874 599,246.5C 600.755,245.33 601.755,243.663 602,241.5C 602.333,242.833 602.667,244.167 603,245.5C 604.039,241.777 605.206,241.777 606.5,245.5C 606.5,248.833 606.5,252.167 606.5,255.5C 603.795,255.38 603.128,256.38 604.5,258.5C 603.863,260.303 602.697,261.636 601,262.5C 600.517,263.448 600.351,264.448 600.5,265.5C 599.022,265.238 597.689,265.571 596.5,266.5C 594.541,270.96 591.207,273.793 586.5,275C 577.821,275.333 569.154,275 560.5,274C 559.584,273.626 558.75,273.126 558,272.5C 556,273.833 554,273.833 552,272.5C 550.333,273.167 548.667,273.833 547,274.5C 546.667,273.833 546.333,273.167 546,272.5C 540.583,273.309 535.083,273.809 529.5,274C 528.833,274.667 528.167,275.333 527.5,276C 519.988,276.822 512.655,276.655 505.5,275.5C 527.353,273.771 548.687,269.605 569.5,263C 580.825,258.504 589.492,251.004 595.5,240.5 Z"/></g>
<g><path style="opacity:1" fill="#7ca8bf" d="M 607.5,239.5 C 611.47,262.386 601.803,275.219 578.5,278C 460.999,278.833 343.666,278.666 226.5,277.5C 316.167,277.667 405.834,277.5 495.5,277C 498.726,275.801 502.059,275.301 505.5,275.5C 512.655,276.655 519.988,276.822 527.5,276C 528.167,275.333 528.833,274.667 529.5,274C 535.083,273.809 540.583,273.309 546,272.5C 546.333,273.167 546.667,273.833 547,274.5C 548.667,273.833 550.333,273.167 552,272.5C 554,273.833 556,273.833 558,272.5C 558.75,273.126 559.584,273.626 560.5,274C 569.154,275 577.821,275.333 586.5,275C 591.207,273.793 594.541,270.96 596.5,266.5C 597.689,265.571 599.022,265.238 600.5,265.5C 600.351,264.448 600.517,263.448 601,262.5C 602.697,261.636 603.863,260.303 604.5,258.5C 603.128,256.38 603.795,255.38 606.5,255.5C 606.5,252.167 606.5,248.833 606.5,245.5C 606.205,243.265 606.539,241.265 607.5,239.5 Z"/></g>
<g><path style="opacity:1" fill="#192c44" d="M 143.5,296.5 C 144.552,296.351 145.552,296.517 146.5,297C 144.956,297.29 143.623,297.956 142.5,299C 131.182,299.92 119.849,300.587 108.5,301C 103.049,301.244 97.7161,302.077 92.5,303.5C 95.7145,301.144 99.3812,299.644 103.5,299C 116.819,297.895 130.153,297.061 143.5,296.5 Z"/></g>
<g><path style="opacity:1" fill="#a9d1de" d="M 473.5,314.5 C 473.333,341.835 473.5,369.169 474,396.5C 477.319,405.462 483.486,407.962 492.5,404C 494.317,402.2 495.484,400.034 496,397.5C 496.333,369.5 496.667,341.5 497,313.5C 504.754,312.353 512.587,312.186 520.5,313C 521,313.5 521.5,314 522,314.5C 522.667,343.5 522.667,372.5 522,401.5C 520.386,412.097 514.886,419.764 505.5,424.5C 488.706,430.977 472.706,429.477 457.5,420C 450.918,413.602 447.418,405.768 447,396.5C 446.333,368.833 446.333,341.167 447,313.5C 447.5,313 448,312.5 448.5,312C 456.167,311.333 463.833,311.333 471.5,312C 472.381,312.708 473.047,313.542 473.5,314.5 Z"/></g>
<g><path style="opacity:1" fill="#a9d2df" d="M 586.5,360.5 C 588.893,361.21 591.393,361.877 594,362.5C 594.667,369.5 594.667,376.5 594,383.5C 592.352,385.028 590.352,385.695 588,385.5C 580.856,384.678 573.69,384.344 566.5,384.5C 565.432,383.566 564.099,383.232 562.5,383.5C 562.5,390.833 562.5,398.167 562.5,405.5C 564.167,405.5 565.833,405.5 567.5,405.5C 578.575,405.328 589.575,405.995 600.5,407.5C 601.665,414.811 601.831,422.144 601,429.5C 587.227,430.685 573.393,430.685 559.5,429.5C 552.467,429.497 545.467,428.997 538.5,428C 538,427.5 537.5,427 537,426.5C 536.333,389.167 536.333,351.833 537,314.5C 540.75,313.85 544.584,313.517 548.5,313.5C 564.836,314.281 581.169,315.114 597.5,316C 598,316.5 598.5,317 599,317.5C 599.812,324.747 599.646,331.914 598.5,339C 586.474,339.749 574.474,339.582 562.5,338.5C 562.187,345.755 562.52,352.921 563.5,360C 571.159,360.5 578.826,360.666 586.5,360.5 Z"/></g>
<g><path style="opacity:1" fill="#0c2c47" d="M 505.5,424.5 C 514.886,419.764 520.386,412.097 522,401.5C 522.667,372.5 522.667,343.5 522,314.5C 521.5,314 521,313.5 520.5,313C 512.587,312.186 504.754,312.353 497,313.5C 496.667,341.5 496.333,369.5 496,397.5C 495.484,400.034 494.317,402.2 492.5,404C 483.486,407.962 477.319,405.462 474,396.5C 473.5,369.169 473.333,341.835 473.5,314.5C 474.117,314.611 474.617,314.944 475,315.5C 475.333,342.5 475.667,369.5 476,396.5C 476.333,397.5 476.667,398.5 477,399.5C 477.333,399.167 477.667,398.833 478,398.5C 482.628,406.011 487.961,406.345 494,399.5C 494.333,370.833 494.667,342.167 495,313.5C 495.374,312.584 495.874,311.75 496.5,311C 503.017,310.686 509.517,310.186 516,309.5C 521.729,310.235 524.729,313.568 525,319.5C 525.416,348.753 525.583,377.92 525.5,407C 523.879,409.166 523.045,411.666 523,414.5C 516.974,416.36 513.141,420.36 511.5,426.5C 510.07,426.421 508.736,426.754 507.5,427.5C 506.081,426.995 505.415,425.995 505.5,424.5 Z"/></g>
<g><path style="opacity:1" fill="#0f2e4d" d="M 586.5,360.5 C 578.826,360.666 571.159,360.5 563.5,360C 562.52,352.921 562.187,345.755 562.5,338.5C 574.474,339.582 586.474,339.749 598.5,339C 599.646,331.914 599.812,324.747 599,317.5C 598.5,317 598,316.5 597.5,316C 581.169,315.114 564.836,314.281 548.5,313.5C 544.584,313.517 540.75,313.85 537,314.5C 536.333,351.833 536.333,389.167 537,426.5C 537.5,427 538,427.5 538.5,428C 545.467,428.997 552.467,429.497 559.5,429.5C 552.288,430.817 544.954,430.65 537.5,429C 535.5,427.333 533.5,425.667 531.5,424C 532.274,421.595 532.774,419.095 533,416.5C 533.833,384.495 533.667,352.495 532.5,320.5C 531.833,320.167 531.167,319.833 530.5,319.5C 529.667,335.156 529.167,350.823 529,366.5C 528.667,366.833 528.333,367.167 528,367.5C 527.833,365 527.667,362.5 527.5,360C 528.333,346.504 528.5,333.004 528,319.5C 529.122,317.58 529.956,315.58 530.5,313.5C 533.765,313.701 536.431,312.534 538.5,310C 537.833,309.667 537.167,309.333 536.5,309C 549.146,309.182 561.813,309.515 574.5,310C 575,310.5 575.5,311 576,311.5C 581.082,310.363 586.249,310.196 591.5,311C 590.5,311.333 589.5,311.667 588.5,312C 592.167,312.333 595.833,312.667 599.5,313C 599.167,313.333 598.833,313.667 598.5,314C 599.416,314.374 600.25,314.874 601,315.5C 601.235,322.862 601.735,330.195 602.5,337.5C 601.964,340.205 600.464,342.205 598,343.5C 596.112,341.078 594.112,341.078 592,343.5C 586.845,342.705 581.845,342.705 577,343.5C 574.26,342.718 571.426,342.218 568.5,342C 569.5,341.667 570.5,341.333 571.5,341C 569.19,340.503 566.857,340.337 564.5,340.5C 564.5,346.5 564.5,352.5 564.5,358.5C 573.835,358.902 583.168,359.402 592.5,360C 590.527,360.495 588.527,360.662 586.5,360.5 Z"/></g>
<g><path style="opacity:1" fill="#001c35" d="M 103.5,324.5 C 103.333,361.168 103.5,397.835 104,434.5C 104.708,435.381 105.542,436.047 106.5,436.5C 105.207,437.645 104.041,437.311 103,435.5C 102.17,397.762 102.337,360.762 103.5,324.5 Z"/></g>
<g><path style="opacity:1" fill="#a8d1df" d="M 172.5,337.5 C 173.388,340.054 173.721,342.721 173.5,345.5C 174.648,356.366 170.982,365.199 162.5,372C 176.958,381.533 181.625,394.7 176.5,411.5C 172.19,421.348 164.857,428.015 154.5,431.5C 138.585,433.765 122.585,435.432 106.5,436.5C 105.542,436.047 104.708,435.381 104,434.5C 103.5,397.835 103.333,361.168 103.5,324.5C 106.528,322.86 109.861,322.026 113.5,322C 126.818,320.827 140.152,320.493 153.5,321C 162.806,323.143 169.139,328.643 172.5,337.5 Z"/></g>
<g><path style="opacity:1" fill="#0b2b4b" d="M 367.5,322.5 C 358.705,335.792 355.372,350.459 357.5,366.5C 355.856,383.04 358.689,398.707 366,413.5C 376.584,425.115 389.751,429.615 405.5,427C 420.465,424.7 429.631,416.2 433,401.5C 434.564,388.882 434.897,376.215 434,363.5C 428.075,362.19 421.908,361.523 415.5,361.5C 409.5,361.667 403.5,361.833 397.5,362C 396.355,368.752 396.189,375.586 397,382.5C 400.922,384.312 405.089,384.979 409.5,384.5C 410.303,390.965 409.136,396.965 406,402.5C 392.448,407.972 385.448,403.306 385,388.5C 384.333,374.833 384.333,361.167 385,347.5C 385.403,341.863 387.569,337.029 391.5,333C 403.148,329.834 408.815,334.334 408.5,346.5C 434.197,353.007 440.697,345.007 428,322.5C 417.356,311.944 404.523,307.778 389.5,310C 385.453,311.072 381.453,312.239 377.5,313.5C 377.5,312.5 377.5,311.5 377.5,310.5C 378.787,309.169 380.953,308.169 384,307.5C 393.074,307.55 402.24,307.717 411.5,308C 413.825,309.605 416.158,311.272 418.5,313C 425.278,313.458 428.945,316.792 429.5,323C 430.859,324.204 431.859,325.704 432.5,327.5C 434.6,328.781 436.266,330.448 437.5,332.5C 436.833,332.833 436.167,333.167 435.5,333.5C 436.074,335.059 436.74,336.559 437.5,338C 438.472,344.002 435.805,347.335 429.5,348C 424.25,348.193 419.083,348.693 414,349.5C 409.852,348.926 406.185,347.26 403,344.5C 401.433,341.606 401.267,338.606 402.5,335.5C 400.801,335.34 399.134,335.506 397.5,336C 396.941,336.725 396.608,337.558 396.5,338.5C 397.108,341.145 397.608,343.812 398,346.5C 399.011,347.337 400.178,347.67 401.5,347.5C 401.227,349.451 401.893,350.951 403.5,352C 407.486,352.499 411.486,352.666 415.5,352.5C 415.917,355.079 415.25,357.246 413.5,359C 420.5,359.333 427.5,359.667 434.5,360C 435.257,361.512 436.257,362.846 437.5,364C 436.677,376.425 436.177,388.925 436,401.5C 434.562,405.907 432.729,410.074 430.5,414C 430.833,414.333 431.167,414.667 431.5,415C 430.061,415.991 429.061,417.324 428.5,419C 424.462,420.735 420.795,423.068 417.5,426C 412.719,427.326 407.886,428.492 403,429.5C 398.062,429.546 393.062,429.213 388,428.5C 387.612,429.428 386.945,430.095 386,430.5C 379.686,427.263 373.519,423.929 367.5,420.5C 367.657,419.127 367.49,417.793 367,416.5C 364.691,415.343 362.191,414.509 359.5,414C 360.022,413.439 360.355,412.772 360.5,412C 359.201,410.674 357.868,409.34 356.5,408C 354.865,407.46 353.532,407.96 352.5,409.5C 352.167,409.167 351.833,408.833 351.5,408.5C 351.61,406.902 351.943,405.235 352.5,403.5C 350.164,401.927 350.164,400.594 352.5,399.5C 353.333,400.5 354.167,401.5 355,402.5C 355.407,398.871 354.907,395.371 353.5,392C 353.332,374.959 353.832,357.792 355,340.5C 356.146,338.356 357.646,336.523 359.5,335C 359.836,330.776 361.169,326.942 363.5,323.5C 364.689,322.571 366.022,322.238 367.5,322.5 Z"/></g>
<g><path style="opacity:1" fill="#001a34" d="M 612.5,318.5 C 612.173,355.906 612.507,393.239 613.5,430.5C 613.565,430.938 613.399,431.272 613,431.5C 612.044,430.421 611.211,429.255 610.5,428C 611.164,391.402 611.83,354.902 612.5,318.5 Z"/></g>
<g><path style="opacity:1" fill="#082a4b" d="M 129.5,341.5 C 144.304,337.478 150.138,342.811 147,357.5C 142.99,363.976 137.157,366.309 129.5,364.5C 129.5,356.833 129.5,349.167 129.5,341.5 Z"/></g>
<g><path style="opacity:1" fill="#a9d1df" d="M 367.5,322.5 C 370.456,319.032 373.789,316.032 377.5,313.5C 381.453,312.239 385.453,311.072 389.5,310C 404.523,307.778 417.356,311.944 428,322.5C 440.697,345.007 434.197,353.007 408.5,346.5C 408.815,334.334 403.148,329.834 391.5,333C 387.569,337.029 385.403,341.863 385,347.5C 384.333,361.167 384.333,374.833 385,388.5C 385.448,403.306 392.448,407.972 406,402.5C 409.136,396.965 410.303,390.965 409.5,384.5C 405.089,384.979 400.922,384.312 397,382.5C 396.189,375.586 396.355,368.752 397.5,362C 403.5,361.833 409.5,361.667 415.5,361.5C 421.908,361.523 428.075,362.19 434,363.5C 434.897,376.215 434.564,388.882 433,401.5C 429.631,416.2 420.465,424.7 405.5,427C 389.751,429.615 376.584,425.115 366,413.5C 358.689,398.707 355.856,383.04 357.5,366.5C 355.372,350.459 358.705,335.792 367.5,322.5 Z"/></g>
<g><path style="opacity:1" fill="#a8d0de" d="M 613.5,430.5 C 612.507,393.239 612.173,355.906 612.5,318.5C 614.676,316.969 617.176,316.303 620,316.5C 632.483,317.847 644.983,319.014 657.5,320C 674.253,322.421 684.087,331.921 687,348.5C 688.491,359.872 687.158,370.872 683,381.5C 679.861,385.483 676.027,388.483 671.5,390.5C 676.123,400.669 680.29,411.003 684,421.5C 686.115,426.627 687.282,431.96 687.5,437.5C 679.333,437.924 671.333,437.09 663.5,435C 657.379,422.25 652.212,409.083 648,395.5C 645.281,394.556 642.448,394.223 639.5,394.5C 639.667,406.838 639.5,419.171 639,431.5C 637.004,433.059 634.671,433.726 632,433.5C 626.5,433 621,432.5 615.5,432C 614.956,431.283 614.289,430.783 613.5,430.5 Z"/></g>
<g><path style="opacity:1" fill="#0b2b4d" d="M 639.5,340.5 C 645.892,339.791 651.892,340.957 657.5,344C 662.782,352.639 662.782,361.305 657.5,370C 651.762,372.295 645.762,373.128 639.5,372.5C 639.5,361.833 639.5,351.167 639.5,340.5 Z"/></g>
<g><path style="opacity:1" fill="#0b2b47" d="M 173.5,345.5 C 175.802,352.267 176.136,359.267 174.5,366.5C 167.327,367.167 165.994,370.167 170.5,375.5C 171.5,376.833 172.5,376.833 173.5,375.5C 174.853,378.758 176.02,382.092 177,385.5C 178.303,386.112 179.47,386.446 180.5,386.5C 180.069,387.293 179.735,388.127 179.5,389C 181.525,396.073 181.692,403.24 180,410.5C 179.581,414.852 178.914,415.185 178,411.5C 177.221,414.097 176.721,414.097 176.5,411.5C 181.625,394.7 176.958,381.533 162.5,372C 170.982,365.199 174.648,356.366 173.5,345.5 Z"/></g>
<g><path style="opacity:1" fill="#a9d1df" d="M 188.5,400.5 C 188.333,372.831 188.5,345.165 189,317.5C 189.5,317 190,316.5 190.5,316C 198.167,315.333 205.833,315.333 213.5,316C 214.329,343.761 214.829,371.595 215,399.5C 217.379,407.198 222.546,409.698 230.5,407C 234.406,406.027 236.573,403.527 237,399.5C 237.5,371.835 237.667,344.169 237.5,316.5C 238.478,316.189 239.145,315.522 239.5,314.5C 246.811,313.335 254.144,313.169 261.5,314C 262.667,314.5 263.5,315.333 264,316.5C 264.667,344.167 264.667,371.833 264,399.5C 259.093,421.145 245.426,431.812 223,431.5C 202.391,431.048 190.891,420.715 188.5,400.5 Z"/></g>
<g><path style="opacity:1" fill="#10243d" d="M 705.5,321.5 C 707.804,325.784 709.304,330.45 710,335.5C 712.274,357.712 709.44,379.212 701.5,400C 704.806,409.448 707.973,418.948 711,428.5C 713.611,441.695 709.111,451.528 697.5,458C 686.107,459.708 674.774,459.208 663.5,456.5C 661.583,456.754 660.249,457.754 659.5,459.5C 658.883,459.611 658.383,459.944 658,460.5C 657.5,497.832 657.333,535.165 657.5,572.5C 656.169,533.665 656.169,494.665 657.5,455.5C 659.943,454.888 662.443,454.555 665,454.5C 673.358,455.551 681.691,456.884 690,458.5C 694.749,457.422 699.082,455.422 703,452.5C 703.833,449.5 704.667,446.5 705.5,443.5C 707.614,442.047 708.948,440.047 709.5,437.5C 708.572,435.106 708.572,432.773 709.5,430.5C 707.292,425.374 705.792,420.041 705,414.5C 703.908,410.881 701.908,407.881 699,405.5C 697.082,402.598 697.249,399.931 699.5,397.5C 698.167,396.167 698.167,394.833 699.5,393.5C 700.274,392.289 701.107,392.289 702,393.5C 709.018,369.857 710.185,345.857 705.5,321.5 Z"/></g>
<g><path style="opacity:1" fill="#072c55" d="M 95.5,319.5 C 93.6714,356.487 92.8381,393.82 93,431.5C 92.0138,432.171 90.8471,432.171 89.5,431.5C 89.3333,394.498 89.5,357.498 90,320.5C 92.221,319.066 93.721,317.066 94.5,314.5C 95.4519,316.045 95.7852,317.712 95.5,319.5 Z"/></g>
<g><path style="opacity:1" fill="#0f2d4a" d="M 350.5,425.5 C 349.829,426.847 349.829,428.014 350.5,429C 348.324,429.163 346.491,429.996 345,431.5C 340.296,427.865 335.296,427.532 330,430.5C 328.354,428.859 327.354,429.193 327,431.5C 325.229,430.696 323.729,429.529 322.5,428C 323.167,427.667 323.833,427.333 324.5,427C 323.069,426.535 321.903,425.701 321,424.5C 320.257,420.028 319.09,415.695 317.5,411.5C 316.675,410.614 315.675,410.281 314.5,410.5C 313.993,405.125 313.16,399.792 312,394.5C 311.333,393.167 310.667,393.167 310,394.5C 309.804,392.096 308.638,390.429 306.5,389.5C 305.197,401.924 304.53,414.257 304.5,426.5C 302.389,427.949 300.056,428.949 297.5,429.5C 291.217,428.706 284.884,428.206 278.5,428C 277.213,426.59 276.046,425.09 275,423.5C 274.333,387.5 274.333,351.5 275,315.5C 276.022,314.646 276.855,313.646 277.5,312.5C 292.343,311.794 307.176,311.127 322,310.5C 325.586,312.399 329.42,313.732 333.5,314.5C 336.377,316.861 339.544,318.861 343,320.5C 346.55,325.247 348.883,330.247 350,335.5C 350.183,343.412 350.683,351.246 351.5,359C 350.653,361.718 349.653,364.384 348.5,367C 348.833,367.333 349.167,367.667 349.5,368C 347.332,370.665 345.665,373.665 344.5,377C 341.461,377.353 338.795,378.52 336.5,380.5C 337.539,382.531 339.205,383.864 341.5,384.5C 342.337,386.844 343.671,388.844 345.5,390.5C 343.896,391.603 342.896,393.103 342.5,395C 344.798,401.411 347.465,407.577 350.5,413.5C 351.344,417.452 351.344,421.452 350.5,425.5 Z"/></g>
<g><path style="opacity:1" fill="#a8d0de" d="M 350.5,425.5 C 342.245,426.634 333.912,426.801 325.5,426C 320.082,413.416 315.249,400.583 311,387.5C 308.395,386.186 305.895,386.186 303.5,387.5C 302.505,399.322 302.172,411.322 302.5,423.5C 295.361,424.18 288.028,424.347 280.5,424C 279.809,422.933 279.309,421.766 279,420.5C 278.832,385.664 278.332,350.998 277.5,316.5C 277.944,314.887 278.944,313.72 280.5,313C 293.5,312.333 306.5,312.333 319.5,313C 334.826,314.556 344.326,322.722 348,337.5C 348.667,344.833 348.667,352.167 348,359.5C 347.605,363.019 346.605,366.352 345,369.5C 341.598,373.726 338.098,377.726 334.5,381.5C 340.424,396.002 345.757,410.669 350.5,425.5 Z"/></g>
<g><path style="opacity:1" fill="#092b4e" d="M 303.5,334.5 C 319.905,332.403 326.405,339.403 323,355.5C 321.932,360.235 319.099,363.402 314.5,365C 310.848,365.499 307.182,365.665 303.5,365.5C 303.5,355.167 303.5,344.833 303.5,334.5 Z"/></g>
<g><path style="opacity:1" fill="#0b2c4e" d="M 132.5,386.5 C 148.629,384.777 154.129,391.444 149,406.5C 147.833,407.667 146.667,408.833 145.5,410C 140.338,411.805 135.004,412.638 129.5,412.5C 129.5,404.167 129.5,395.833 129.5,387.5C 130.791,387.737 131.791,387.404 132.5,386.5 Z"/></g>
<g><path style="opacity:1" fill="#32556a" d="M 566.5,384.5 C 565.5,384.5 564.5,384.5 563.5,384.5C 563.5,391.167 563.5,397.833 563.5,404.5C 565.099,404.232 566.432,404.566 567.5,405.5C 565.833,405.5 564.167,405.5 562.5,405.5C 562.5,398.167 562.5,390.833 562.5,383.5C 564.099,383.232 565.432,383.566 566.5,384.5 Z"/></g>
<g><path style="opacity:1" fill="#0c2b46" d="M 237.5,316.5 C 237.667,344.169 237.5,371.835 237,399.5C 236.573,403.527 234.406,406.027 230.5,407C 222.546,409.698 217.379,407.198 215,399.5C 214.829,371.595 214.329,343.761 213.5,316C 205.833,315.333 198.167,315.333 190.5,316C 190,316.5 189.5,317 189,317.5C 188.5,345.165 188.333,372.831 188.5,400.5C 188.631,401.239 188.464,401.906 188,402.5C 187.667,400.167 187.333,397.833 187,395.5C 186.333,369.5 186.333,343.5 187,317.5C 187.692,316.975 188.192,316.308 188.5,315.5C 197.829,313.999 207.163,313.666 216.5,314.5C 216.381,341.395 216.547,368.395 217,395.5C 217.473,397.779 218.473,399.779 220,401.5C 220.333,401.167 220.667,400.833 221,400.5C 221.605,402.481 222.605,402.815 224,401.5C 226.978,402.904 229.978,403.237 233,402.5C 233.667,399.833 234.333,397.167 235,394.5C 235.333,369.5 235.667,344.5 236,319.5C 236.083,317.494 236.583,316.494 237.5,316.5 Z"/></g>
<g><path style="opacity:1" fill="#bbdef1" d="M 277.5,316.5 C 278.332,350.998 278.832,385.664 279,420.5C 279.309,421.766 279.809,422.933 280.5,424C 288.028,424.347 295.361,424.18 302.5,423.5C 302.172,411.322 302.505,399.322 303.5,387.5C 303.667,399.838 303.5,412.171 303,424.5C 302.5,425 302,425.5 301.5,426C 293.587,426.814 285.754,426.647 278,425.5C 277.5,389.168 277.333,352.835 277.5,316.5 Z"/></g>
<g><path style="opacity:1" fill="#a9d1df" d="M 301.5,446.5 C 313.171,446.333 324.838,446.5 336.5,447C 346.631,486.27 355.964,525.77 364.5,565.5C 364.41,567.425 363.41,568.592 361.5,569C 353.833,569.667 346.167,569.667 338.5,569C 338,568.5 337.5,568 337,567.5C 336.056,560.838 335.223,554.171 334.5,547.5C 324.5,547.5 314.5,547.5 304.5,547.5C 303.832,553.178 302.998,558.845 302,564.5C 301.837,566.676 301.004,568.509 299.5,570C 291.5,570.667 283.5,570.667 275.5,570C 274.884,568.6 274.551,567.1 274.5,565.5C 282.221,528.852 290.054,492.186 298,455.5C 298.495,452.172 299.662,449.172 301.5,446.5 Z"/></g>
<g><path style="opacity:1" fill="#a9d1de" d="M 529.5,498.5 C 529.666,505.508 529.5,512.508 529,519.5C 528.626,520.416 528.126,521.25 527.5,522C 516.839,522.5 506.172,522.667 495.5,522.5C 495.5,529.833 495.5,537.167 495.5,544.5C 508.507,544.762 521.507,545.262 534.5,546C 535,546.5 535.5,547 536,547.5C 536.667,555.167 536.667,562.833 536,570.5C 535.25,571.126 534.416,571.626 533.5,572C 512.134,572.46 490.801,571.794 469.5,570C 469,569.5 468.5,569 468,568.5C 467.5,528.835 467.333,489.168 467.5,449.5C 467.414,448.504 467.748,447.671 468.5,447C 472,446.833 475.5,446.667 479,446.5C 496.92,446.862 514.753,447.696 532.5,449C 533.833,457.333 533.833,465.667 532.5,474C 520.171,474.5 507.838,474.667 495.5,474.5C 495.5,481.833 495.5,489.167 495.5,496.5C 506.935,496.365 518.269,497.031 529.5,498.5 Z"/></g>
<g><path style="opacity:1" fill="#001a36" d="M 633.5,576.5 C 634.404,575.791 634.737,574.791 634.5,573.5C 635.333,534.335 635.833,495.002 636,455.5C 636.667,495.833 636.667,536.167 636,576.5C 635.023,577.774 634.189,577.774 633.5,576.5 Z"/></g>
<g><path style="opacity:1" fill="#a8d1df" d="M 254.5,560.5 C 254.191,564.221 253.191,567.721 251.5,571C 241.891,572.754 232.224,572.92 222.5,571.5C 218.005,549.517 213.505,527.517 209,505.5C 204.817,527.891 200.484,550.225 196,572.5C 194.933,573.191 193.766,573.691 192.5,574C 183.921,574.816 175.421,574.649 167,573.5C 157.765,534.453 148.932,495.287 140.5,456C 140.439,454.289 141.106,452.956 142.5,452C 150.469,450.735 158.469,450.402 166.5,451C 167.701,451.903 168.535,453.069 169,454.5C 169.976,461.213 171.143,467.879 172.5,474.5C 175.822,492.404 178.655,510.404 181,528.5C 185.959,503.307 190.626,477.974 195,452.5C 195.374,451.584 195.874,450.75 196.5,450C 204.421,448.432 212.421,448.099 220.5,449C 221.893,450.171 222.727,451.671 223,453.5C 227.724,477.45 232.057,501.45 236,525.5C 240.669,500.138 245.335,474.805 250,449.5C 250.5,449 251,448.5 251.5,448C 259.746,447.185 267.912,447.352 276,448.5C 276.667,451.5 276.667,454.5 276,457.5C 268.784,491.865 261.617,526.199 254.5,560.5 Z"/></g>
<g><path style="opacity:1" fill="#0c2d4e" d="M 443.5,559.5 C 449.464,551.555 452.63,542.555 453,532.5C 453.667,522.5 453.667,512.5 453,502.5C 452.5,501.333 451.667,500.5 450.5,500C 437.5,499.333 424.5,499.333 411.5,500C 410.354,507.086 410.188,514.253 411,521.5C 411.5,522 412,522.5 412.5,523C 416.821,523.499 421.154,523.666 425.5,523.5C 425.666,528.511 425.499,533.511 425,538.5C 421.061,546.042 414.895,548.542 406.5,546C 404.376,544.878 402.543,543.378 401,541.5C 398.92,536.03 397.587,530.363 397,524.5C 396.333,512.833 396.333,501.167 397,489.5C 396.56,481.813 399.06,475.313 404.5,470C 416.397,465.799 423.064,469.966 424.5,482.5C 433.147,483.665 441.814,483.832 450.5,483C 452.665,481.839 453.665,480.006 453.5,477.5C 452.561,473.018 451.228,468.685 449.5,464.5C 451.339,463.248 453.172,463.248 455,464.5C 455.867,470.493 456.2,476.493 456,482.5C 451.83,485.041 447.497,487.041 443,488.5C 442.667,487.833 442.333,487.167 442,486.5C 437.431,487.191 432.598,488.191 427.5,489.5C 430.856,492.608 434.856,494.275 439.5,494.5C 435.005,495.597 430.671,496.264 426.5,496.5C 434.058,497.813 441.558,497.813 449,496.5C 453.966,497.968 456.466,501.301 456.5,506.5C 455.539,518.802 455.206,531.136 455.5,543.5C 454.5,543.5 453.5,543.5 452.5,543.5C 451.642,547.127 451.476,550.794 452,554.5C 449.981,557.712 447.147,559.378 443.5,559.5 Z"/></g>
<g><path style="opacity:1" fill="#a9d1df" d="M 606.5,516.5 C 606.56,517.043 606.893,517.376 607.5,517.5C 608.5,496.177 608.833,474.844 608.5,453.5C 616.941,452.293 625.441,452.626 634,454.5C 634.5,494.165 634.667,533.832 634.5,573.5C 634.737,574.791 634.404,575.791 633.5,576.5C 625.554,577.454 617.554,577.287 609.5,576C 598.26,555.686 587.926,534.852 578.5,513.5C 578.44,512.957 578.107,512.624 577.5,512.5C 576.5,532.155 576.167,551.822 576.5,571.5C 576.586,572.496 576.252,573.329 575.5,574C 567.48,574.435 559.48,574.101 551.5,573C 550.874,572.25 550.374,571.416 550,570.5C 549.333,530.833 549.333,491.167 550,451.5C 550.5,451 551,450.5 551.5,450C 558.833,449.333 566.167,449.333 573.5,450C 574.333,450.833 575.167,451.667 576,452.5C 586.435,473.703 596.601,495.036 606.5,516.5 Z"/></g>
<g><path style="opacity:1" fill="#87acbe" d="M 608.5,453.5 C 608.833,474.844 608.5,496.177 607.5,517.5C 606.893,517.376 606.56,517.043 606.5,516.5C 607.167,495.5 607.833,474.5 608.5,453.5 Z"/></g>
<g><path style="opacity:1" fill="#0c2c4b" d="M 328.5,523.5 C 322.69,524.49 316.69,524.823 310.5,524.5C 310.5,523.5 310.5,522.5 310.5,521.5C 312.698,507.375 315.531,493.375 319,479.5C 322.741,494.035 325.907,508.702 328.5,523.5 Z"/></g>
<g><path style="opacity:1" fill="#a9d1df" d="M 449.5,464.5 C 451.228,468.685 452.561,473.018 453.5,477.5C 453.665,480.006 452.665,481.839 450.5,483C 441.814,483.832 433.147,483.665 424.5,482.5C 423.064,469.966 416.397,465.799 404.5,470C 399.06,475.313 396.56,481.813 397,489.5C 396.333,501.167 396.333,512.833 397,524.5C 397.587,530.363 398.92,536.03 401,541.5C 402.543,543.378 404.376,544.878 406.5,546C 414.895,548.542 421.061,546.042 425,538.5C 425.499,533.511 425.666,528.511 425.5,523.5C 421.154,523.666 416.821,523.499 412.5,523C 412,522.5 411.5,522 411,521.5C 410.188,514.253 410.354,507.086 411.5,500C 424.5,499.333 437.5,499.333 450.5,500C 451.667,500.5 452.5,501.333 453,502.5C 453.667,512.5 453.667,522.5 453,532.5C 452.63,542.555 449.464,551.555 443.5,559.5C 431.784,570.67 417.784,574.504 401.5,571C 382.843,566.581 372.343,554.747 370,535.5C 368.534,518.19 368.201,500.857 369,483.5C 372.908,455.257 389.075,442.09 417.5,444C 432.048,445.09 442.715,451.923 449.5,464.5 Z"/></g>
<g><path style="opacity:1" fill="#5d8095" d="M 310.5,521.5 C 310.5,522.5 310.5,523.5 310.5,524.5C 316.69,524.823 322.69,524.49 328.5,523.5C 329.043,523.56 329.376,523.893 329.5,524.5C 322.866,525.497 316.2,525.83 309.5,525.5C 309.232,523.901 309.566,522.568 310.5,521.5 Z"/></g>
<g><path style="opacity:1" fill="#0b2c4d" d="M 91.5,304.5 C 90.5253,307.248 88.692,309.248 86,310.5C 84.2503,313.246 83.2503,316.246 83,319.5C 82.1667,358.838 82.3334,398.171 83.5,437.5C 84.9815,440.678 86.1481,444.012 87,447.5C 88.4925,449.348 90.3259,450.181 92.5,450C 90.3437,447.214 90.0103,444.214 91.5,441C 90.1282,437.974 89.4615,434.807 89.5,431.5C 90.8471,432.171 92.0138,432.171 93,431.5C 92.8381,393.82 93.6714,356.487 95.5,319.5C 94.852,346.098 95.5187,372.931 97.5,400C 97.3333,410.5 97.1667,421 97,431.5C 95.6253,433.937 95.1253,436.603 95.5,439.5C 97.6778,438.796 99.6778,438.463 101.5,438.5C 101.251,399.202 101.084,359.869 101,320.5C 101.333,320.167 101.667,319.833 102,319.5C 102.419,320.672 103.085,321.672 104,322.5C 105.945,321.137 108.112,320.303 110.5,320C 127.178,318.221 143.844,318.221 160.5,320C 164.567,320.357 166.9,322.524 167.5,326.5C 170.409,328.793 172.742,331.627 174.5,335C 173.934,335.995 173.267,336.828 172.5,337.5C 169.139,328.643 162.806,323.143 153.5,321C 140.152,320.493 126.818,320.827 113.5,322C 109.861,322.026 106.528,322.86 103.5,324.5C 102.337,360.762 102.17,397.762 103,435.5C 104.041,437.311 105.207,437.645 106.5,436.5C 122.585,435.432 138.585,433.765 154.5,431.5C 154.944,433.113 155.944,434.28 157.5,435C 155.77,436.852 154.604,436.686 154,434.5C 152.601,435.227 151.101,435.727 149.5,436C 150.833,436.333 152.167,436.667 153.5,437C 147.331,437.379 141.164,437.213 135,436.5C 130.389,436.298 126.389,437.631 123,440.5C 122.333,437.833 121.667,437.833 121,440.5C 120.612,439.572 119.945,438.905 119,438.5C 117.909,440.346 116.576,441.013 115,440.5C 114.667,439.833 114.333,439.167 114,438.5C 110.589,439.957 107.089,441.29 103.5,442.5C 111.167,443.833 118.833,443.833 126.5,442.5C 127.145,441.354 127.978,440.354 129,439.5C 133,439.5 137,439.5 141,439.5C 142.5,440.667 144,441.833 145.5,443C 144.833,443.333 144.167,443.667 143.5,444C 145.108,444.658 146.275,444.158 147,442.5C 148.356,443.38 149.856,443.714 151.5,443.5C 151.439,445.592 150.439,447.092 148.5,448C 153.222,450.029 157.888,449.863 162.5,447.5C 165.422,448.798 168.422,449.798 171.5,450.5C 172.329,456.307 172.995,462.141 173.5,468C 173.496,470.361 173.163,472.527 172.5,474.5C 171.143,467.879 169.976,461.213 169,454.5C 168.535,453.069 167.701,451.903 166.5,451C 158.469,450.402 150.469,450.735 142.5,452C 141.106,452.956 140.439,454.289 140.5,456C 148.932,495.287 157.765,534.453 167,573.5C 175.421,574.649 183.921,574.816 192.5,574C 193.766,573.691 194.933,573.191 196,572.5C 200.484,550.225 204.817,527.891 209,505.5C 213.505,527.517 218.005,549.517 222.5,571.5C 232.224,572.92 241.891,572.754 251.5,571C 253.191,567.721 254.191,564.221 254.5,560.5C 255.803,563.355 255.803,566.355 254.5,569.5C 253.081,571.336 251.914,573.336 251,575.5C 245.668,575.063 240.168,574.397 234.5,573.5C 230.395,574.5 226.395,575 222.5,575C 223.116,576.4 223.449,577.9 223.5,579.5C 222.189,583.407 221.522,587.407 221.5,591.5C 225.432,591.676 229.099,592.676 232.5,594.5C 243.189,593.976 254.023,593.31 265,592.5C 276.944,592.611 288.278,592.611 299,592.5C 308.424,593.414 317.924,594.081 327.5,594.5C 339.177,593.305 350.843,593.305 362.5,594.5C 364.839,594.331 367.006,593.664 369,592.5C 370.888,594.922 372.888,594.922 375,592.5C 377.667,593.833 380.333,593.833 383,592.5C 395.998,593.555 408.998,594.222 422,594.5C 423.663,593.01 425.33,592.344 427,592.5C 428,593.167 429,593.833 430,594.5C 435.754,593.705 441.588,593.705 447.5,594.5C 453.444,594.377 459.277,593.71 465,592.5C 484.271,594.333 502.604,595 520,594.5C 522.54,593.457 524.874,592.791 527,592.5C 528.18,593.684 529.68,594.351 531.5,594.5C 544.82,593.472 558.32,593.472 572,594.5C 576.955,594.592 581.788,593.926 586.5,592.5C 588.337,594.645 589.337,596.811 589.5,599C 593.457,598.604 596.29,600.104 598,603.5C 598.333,602.833 598.667,602.167 599,601.5C 598.825,603.857 598.658,606.023 598.5,608C 600.209,613.009 601.209,618.175 601.5,623.5C 600.178,623.33 599.011,623.663 598,624.5C 598.344,628.974 597.844,633.474 596.5,638C 597.337,639.587 598.67,640.42 600.5,640.5C 602.135,639.954 603.801,639.62 605.5,639.5C 605.097,635.358 604.097,631.358 602.5,627.5C 602.522,620.981 602.689,614.314 603,607.5C 603.499,612.489 603.666,617.489 603.5,622.5C 604.822,622.33 605.989,622.663 607,623.5C 607.208,629.099 608.041,634.599 609.5,640C 609.318,642.343 608.318,644.176 606.5,645.5C 607.145,646.646 607.978,647.646 609,648.5C 609.462,644.906 611.128,641.573 614,638.5C 614.801,633.009 616.634,627.842 619.5,623C 618.648,618.225 619.648,613.725 622.5,609.5C 623.107,609.624 623.44,609.957 623.5,610.5C 619.956,637.603 607.623,659.603 586.5,676.5C 583.039,674.495 579.706,672.162 576.5,669.5C 575.806,666.912 574.64,664.579 573,662.5C 572,663.833 571,663.833 570,662.5C 569.798,664.256 569.298,665.922 568.5,667.5C 564.952,666.649 561.619,667.316 558.5,669.5C 557.554,669.013 556.554,668.68 555.5,668.5C 552.793,670.556 549.96,671.222 547,670.5C 544.874,672.701 542.708,672.701 540.5,670.5C 561.299,666.86 577.799,656.526 590,639.5C 596.956,628.106 598.123,616.273 593.5,604C 590.968,602.235 588.301,600.735 585.5,599.5C 585.108,597.821 584.608,596.154 584,594.5C 581.932,595.394 579.765,596.06 577.5,596.5C 469.359,596.762 360.859,596.429 252,595.5C 242.068,596.155 232.235,596.822 222.5,597.5C 221.5,597.5 220.5,597.5 219.5,597.5C 219.414,596.504 219.748,595.671 220.5,595C 216.028,594.569 211.695,593.902 207.5,593C 207.833,593.333 208.167,593.667 208.5,594C 207.421,594.956 206.255,595.789 205,596.5C 201.955,595.233 199.121,596.233 196.5,599.5C 195.167,602.167 195.167,604.833 196.5,607.5C 193.482,607.953 190.482,608.287 187.5,608.5C 191.246,612.338 193.08,617.004 193,622.5C 196.333,624.833 196.333,627.167 193,629.5C 191.983,627.624 191.149,625.624 190.5,623.5C 189.1,627.967 189.433,632.3 191.5,636.5C 189.628,638.91 188.295,641.577 187.5,644.5C 185.737,642.115 184.237,639.448 183,636.5C 182.674,632.372 181.84,628.372 180.5,624.5C 181.268,621.846 181.434,619.179 181,616.5C 180.667,616.833 180.333,617.167 180,617.5C 178.693,615.808 177.193,614.475 175.5,613.5C 173.762,608.783 173.096,603.783 173.5,598.5C 159.561,598.117 150.061,591.451 145,578.5C 136.624,538.996 127.624,499.663 118,460.5C 117.5,460 117,459.5 116.5,459C 99.4888,461.918 87.9888,455.418 82,439.5C 80.3565,399.213 80.0232,358.88 81,318.5C 82.356,312.079 85.856,307.412 91.5,304.5 Z"/></g>
<g><path style="opacity:1" fill="#7c9faf" d="M 578.5,513.5 C 577.833,532.833 577.167,552.167 576.5,571.5C 576.167,551.822 576.5,532.155 577.5,512.5C 578.107,512.624 578.44,512.957 578.5,513.5 Z"/></g>
<g><path style="opacity:1" fill="#102e4a" d="M 467.5,449.5 C 467.333,489.168 467.5,528.835 468,568.5C 468.5,569 469,569.5 469.5,570C 490.801,571.794 512.134,572.46 533.5,572C 534.416,571.626 535.25,571.126 536,570.5C 536.667,562.833 536.667,555.167 536,547.5C 535.5,547 535,546.5 534.5,546C 521.507,545.262 508.507,544.762 495.5,544.5C 495.5,537.167 495.5,529.833 495.5,522.5C 506.172,522.667 516.839,522.5 527.5,522C 528.126,521.25 528.626,520.416 529,519.5C 529.5,512.508 529.666,505.508 529.5,498.5C 530.656,506.323 530.823,514.323 530,522.5C 527.493,524.155 524.659,524.989 521.5,525C 513.422,525.599 505.422,525.599 497.5,525C 496.524,531.076 496.19,537.242 496.5,543.5C 510.167,543.5 523.833,543.5 537.5,543.5C 538.983,550.232 539.983,557.066 540.5,564C 540.441,565.436 540.108,566.769 539.5,568C 541.884,570.024 542.051,572.191 540,574.5C 524.289,573.412 508.289,573.412 492,574.5C 486.231,573.717 480.398,573.05 474.5,572.5C 472.714,572.696 471.381,573.529 470.5,575C 468.866,575.494 467.199,575.66 465.5,575.5C 465.67,574.178 465.337,573.011 464.5,572C 465.167,571.667 465.833,571.333 466.5,571C 465.836,550.738 465.503,530.405 465.5,510C 465.5,489.489 466.167,469.322 467.5,449.5 Z"/></g>
<g><path style="opacity:0.592" fill="#c7ced5" d="M 659.5,459.5 C 659.667,499.168 659.5,538.835 659,578.5C 656.948,588.101 651.448,594.935 642.5,599C 639.854,599.497 637.187,599.664 634.5,599.5C 648.223,595.769 655.89,586.769 657.5,572.5C 657.333,535.165 657.5,497.832 658,460.5C 658.383,459.944 658.883,459.611 659.5,459.5 Z"/></g>
<g><path style="opacity:1" fill="#092c46" d="M 585.5,599.5 C 584.508,599.672 583.842,599.338 583.5,598.5C 463.334,597.5 343.001,597.167 222.5,597.5C 232.235,596.822 242.068,596.155 252,595.5C 360.859,596.429 469.359,596.762 577.5,596.5C 579.765,596.06 581.932,595.394 584,594.5C 584.608,596.154 585.108,597.821 585.5,599.5 Z"/></g>
<g><path style="opacity:1" fill="#001831" d="M 219.5,597.5 C 220.5,597.5 221.5,597.5 222.5,597.5C 343.001,597.167 463.334,597.5 583.5,598.5C 459.999,598.167 336.666,598.5 213.5,599.5C 212.833,599.5 212.167,599.5 211.5,599.5C 211.062,599.565 210.728,599.399 210.5,599C 213.351,597.711 216.351,597.211 219.5,597.5 Z"/></g>
<g><path style="opacity:1" fill="#aed1e5" d="M 583.5,598.5 C 583.842,599.338 584.508,599.672 585.5,599.5C 585.5,601.167 585.5,602.833 585.5,604.5C 584.761,604.631 584.094,604.464 583.5,604C 584.833,603 584.833,602 583.5,601C 459.999,600.833 336.666,600.333 213.5,599.5C 336.666,598.5 459.999,598.167 583.5,598.5 Z"/></g>
<g><path style="opacity:1" fill="#a7d0dd" d="M 211.5,599.5 C 212.167,599.5 212.833,599.5 213.5,599.5C 336.666,600.333 459.999,600.833 583.5,601C 584.833,602 584.833,603 583.5,604C 584.094,604.464 584.761,604.631 585.5,604.5C 585.986,621.228 579.986,635.061 567.5,646C 555.53,654.672 542.196,660.338 527.5,663C 500.821,667.225 474.154,670.391 447.5,672.5C 387.166,672.667 326.832,672.5 266.5,672C 250.316,669.776 235.649,663.943 222.5,654.5C 211.866,645.997 205.032,634.997 202,621.5C 199.303,611.373 202.47,604.039 211.5,599.5 Z"/></g>
<g><path style="opacity:1" fill="#7eb3c8" d="M 585.5,599.5 C 588.301,600.735 590.968,602.235 593.5,604C 598.123,616.273 596.956,628.106 590,639.5C 577.799,656.526 561.299,666.86 540.5,670.5C 539.508,670.328 538.842,670.662 538.5,671.5C 508.185,672.453 477.851,672.786 447.5,672.5C 474.154,670.391 500.821,667.225 527.5,663C 542.196,660.338 555.53,654.672 567.5,646C 579.986,635.061 585.986,621.228 585.5,604.5C 585.5,602.833 585.5,601.167 585.5,599.5 Z"/></g>
<g><path style="opacity:1" fill="#122641" d="M 175.5,613.5 C 177.193,614.475 178.693,615.808 180,617.5C 180.333,617.167 180.667,616.833 181,616.5C 181.434,619.179 181.268,621.846 180.5,624.5C 181.84,628.372 182.674,632.372 183,636.5C 184.237,639.448 185.737,642.115 187.5,644.5C 188.398,646.905 189.898,648.905 192,650.5C 192.113,652.974 193.113,654.974 195,656.5C 195.333,656.167 195.667,655.833 196,655.5C 196.428,659.64 198.428,662.64 202,664.5C 203.465,663.67 204.965,663.504 206.5,664C 205.833,664.333 205.167,664.667 204.5,665C 206.353,667.571 208.019,670.238 209.5,673C 213.604,676.561 217.938,679.895 222.5,683C 227.343,681.674 230.176,683.507 231,688.5C 233.352,690.03 235.519,691.697 237.5,693.5C 228.131,688.31 219.131,682.477 210.5,676C 191.141,659.446 179.474,638.613 175.5,613.5 Z"/></g>
<g><path style="opacity:1" fill="#092c50" d="M 219.5,597.5 C 216.351,597.211 213.351,597.711 210.5,599C 210.728,599.399 211.062,599.565 211.5,599.5C 202.47,604.039 199.303,611.373 202,621.5C 205.032,634.997 211.866,645.997 222.5,654.5C 222.703,656.044 223.37,657.378 224.5,658.5C 233.877,665.004 244.21,669.504 255.5,672C 260.833,672.667 266.167,673.333 271.5,674C 355.27,674.433 438.604,674.933 521.5,675.5C 527.931,674.397 533.597,673.063 538.5,671.5C 538.842,670.662 539.508,670.328 540.5,670.5C 542.708,672.701 544.874,672.701 547,670.5C 549.96,671.222 552.793,670.556 555.5,668.5C 556.554,668.68 557.554,669.013 558.5,669.5C 561.619,667.316 564.952,666.649 568.5,667.5C 569.298,665.922 569.798,664.256 570,662.5C 571,663.833 572,663.833 573,662.5C 574.64,664.579 575.806,666.912 576.5,669.5C 579.706,672.162 583.039,674.495 586.5,676.5C 565.09,693.376 541.423,706.376 515.5,715.5C 515.265,714.903 514.765,714.57 514,714.5C 499.958,719.577 485.625,723.577 471,726.5C 461.727,727.525 452.56,729.025 443.5,731C 433.472,731.784 423.472,731.618 413.5,730.5C 411.392,730.86 409.392,731.527 407.5,732.5C 411.982,733.167 416.316,733.834 420.5,734.5C 405.494,735.742 390.494,735.742 375.5,734.5C 375.423,733.25 374.756,732.417 373.5,732C 367.5,731.667 361.5,731.333 355.5,731C 347.448,728.449 339.114,727.116 330.5,727C 329.672,726.085 328.672,725.419 327.5,725C 322.23,724.98 317.23,723.98 312.5,722C 309.633,721.199 306.966,721.366 304.5,722.5C 280.643,716.112 258.309,706.445 237.5,693.5C 235.519,691.697 233.352,690.03 231,688.5C 230.176,683.507 227.343,681.674 222.5,683C 217.938,679.895 213.604,676.561 209.5,673C 208.019,670.238 206.353,667.571 204.5,665C 205.167,664.667 205.833,664.333 206.5,664C 204.965,663.504 203.465,663.67 202,664.5C 198.428,662.64 196.428,659.64 196,655.5C 195.667,655.833 195.333,656.167 195,656.5C 193.113,654.974 192.113,652.974 192,650.5C 189.898,648.905 188.398,646.905 187.5,644.5C 188.295,641.577 189.628,638.91 191.5,636.5C 189.433,632.3 189.1,627.967 190.5,623.5C 191.149,625.624 191.983,627.624 193,629.5C 196.333,627.167 196.333,624.833 193,622.5C 193.08,617.004 191.246,612.338 187.5,608.5C 190.482,608.287 193.482,607.953 196.5,607.5C 195.167,604.833 195.167,602.167 196.5,599.5C 199.121,596.233 201.955,595.233 205,596.5C 206.255,595.789 207.421,594.956 208.5,594C 208.167,593.667 207.833,593.333 207.5,593C 211.695,593.902 216.028,594.569 220.5,595C 219.748,595.671 219.414,596.504 219.5,597.5 Z"/></g>
<g><path style="opacity:1" fill="#0d2c49" d="M 222.5,654.5 C 235.649,663.943 250.316,669.776 266.5,672C 326.832,672.5 387.166,672.667 447.5,672.5C 477.851,672.786 508.185,672.453 538.5,671.5C 533.597,673.063 527.931,674.397 521.5,675.5C 438.604,674.933 355.27,674.433 271.5,674C 266.167,673.333 260.833,672.667 255.5,672C 244.21,669.504 233.877,665.004 224.5,658.5C 223.37,657.378 222.703,656.044 222.5,654.5 Z"/></g>
<g><path style="opacity:1" fill="#12253c" d="M 515.5,715.5 C 484.809,726.572 453.142,732.905 420.5,734.5C 416.316,733.834 411.982,733.167 407.5,732.5C 409.392,731.527 411.392,730.86 413.5,730.5C 423.472,731.618 433.472,731.784 443.5,731C 452.56,729.025 461.727,727.525 471,726.5C 485.625,723.577 499.958,719.577 514,714.5C 514.765,714.57 515.265,714.903 515.5,715.5 Z"/></g>
<g><path style="opacity:1" fill="#192a41" d="M 304.5,722.5 C 306.966,721.366 309.633,721.199 312.5,722C 317.23,723.98 322.23,724.98 327.5,725C 328.672,725.419 329.672,726.085 330.5,727C 339.114,727.116 347.448,728.449 355.5,731C 361.5,731.333 367.5,731.667 373.5,732C 374.756,732.417 375.423,733.25 375.5,734.5C 351.413,732.815 327.747,728.815 304.5,722.5 Z"/></g>
</svg>
